# xmcd
#
# Track frame offsets:
#	150
#	10695
#	28735
#	49645
#	67855
#	89787
#	108945
#	127047
#	146125
#	166810
#	187392
#	208740
#	225232
#	252897
#	271085
#
# Disc length: 4275 seconds
#
# Revision: 0
# Processed by: cddbd v1.5.2PL0 Copyright (c) Steve Scherf et al.
# Submitted via: EasyCDDAExtractor 11.6.0.1
#
DISCID=cf10b10f
DTITLE=Jay-Z - Vol. 3...Life and Times Of S. Carter
DYEAR=1999
DGENRE=Hip-Hop
TTITLE0=Hova Song (Intro)
TTITLE1=So Ghetto
TTITLE2=Do It Again (Put Ya Hands Up) (Featuring Beanie Sigel and Amil)
TTITLE3=Dope Man
TTITLE4=Things That U Do (Featuring Mariah Carey)
TTITLE5=It's Hot (Some Like It Hot)
TTITLE6=Snoopy Track (Featuring Juvenile)
TTITLE7=S. Carter (Featuring Amil)
TTITLE8=Pop 4 Roc (Featuring Amil, Beanie Sigel and Memphis Bleek)
TTITLE9=Watch Me (Featuring Dr. Dre)
TTITLE10=Big Pimpin' (Featuring UGK)
TTITLE11=There's Been A Murder
TTITLE12=Come and Get Me
TTITLE13=NYMP
TTITLE14=Hova Song (Outro)
EXTD=
EXTT0=
EXTT1=
EXTT2=
EXTT3=
EXTT4=
EXTT5=
EXTT6=
EXTT7=
EXTT8=
EXTT9=
EXTT10=
EXTT11=
EXTT12=
EXTT13=
EXTT14=
PLAYORDER=
